<?xml version="1.0" encoding="utf-8"?>
<!-- Generator: Adobe Illustrator 16.0.0, SVG Export Plug-In . SVG Version: 6.00 Build 0)  -->
<!DOCTYPE svg PUBLIC "-//W3C//DTD SVG 1.1//EN" "http://www.w3.org/Graphics/SVG/1.1/DTD/svg11.dtd">
<svg
	version="1.1"
	xmlns="http://www.w3.org/2000/svg"
	xmlns:xlink="http://www.w3.org/1999/xlink"
	x="0px"
	y="0px"
	width="512px"
	height="90px"
	viewBox="0 0 512 90"
	enable-background="new 0 0 512 90"
	xml:space="preserve"
>
	<path
		fill="#ffffff"
		d="M126.479,80.093l-13.338,0.016c-7.335,0.007-13.337-0.005-13.337-0.029c0-0.023,6.641-11.552,14.758-25.616
		l14.757-25.575l17.198-14.433C155.976,6.517,163.74,0.013,163.771,0c0.031-0.011-0.094,0.302-0.277,0.696
		c-0.183,0.395-8.586,18.419-18.674,40.055L126.479,80.093z M191.669,47.829c-14.075-24.398-23.979-41.496-24.007-41.448
		c-0.081,0.142-14.635,40.218-14.635,40.301c0,0.043,6.342,7.622,14.094,16.843l14.094,16.763l-0.258,0.057
		c-0.142,0.029-12.472,2.213-27.399,4.849l-27.142,4.796l44.79,0.004L215.997,90l-0.184-0.32
		C215.713,89.5,204.848,70.672,191.669,47.829z"
	/>
	<path
		fill="#ffffff"
		d="M253.167,28h-3.192h-3.193l-9.938,26.047c-5.466,14.351-9.95,25.981-9.965,26.025
		C226.855,80.137,227.56,80,230.255,80h3.403l2.515-6.947c1.384-3.891,2.56-6.926,2.612-7.064L238.881,66h11.076h11.075l2.749,7.002
		L266.534,80h3.396c1.869,0,3.399,0.115,3.399,0.1c0-0.029-19.087-49.461-19.896-51.537L253.167,28z M259.01,60.019
		c0,0.012-4.071,0.02-9.047,0.02s-9.048-0.024-9.048-0.057c0-0.028,1.817-5.003,4.036-11.052c2.219-6.046,4.125-11.278,4.235-11.624
		c0.223-0.699,0.512-1.957,0.577-2.519c0.094-0.787,0.173-0.763,0.33,0.1c0.334,1.838,0.571,2.528,4.804,13.982
		C257.159,54.991,259.01,60.006,259.01,60.019z M291.885,43H306v0.729v0.856l-10.869,15.215
		c-6.068,8.387-10.868,15.227-10.868,15.243S289.17,75,295.168,75H306v2.704V80h-15.274H275v-0.697v-0.956l11.225-15.164
		l11.225-15.165l-9.99-0.023l-9.989-0.018l-0.017-2.505L277.435,43H291.885z M412.063,58.48c-0.167-4.882-1.427-8.851-3.812-11.689
		c-2.35-2.794-5.777-4.569-9.549-4.919c-1.503-0.138-3.975,0.006-5.39,0.315c-2.425,0.531-4.699,1.621-6.651,3.179
		c-0.725,0.578-2.031,1.887-2.609,2.612c-2.252,2.819-3.832,6.771-4.317,10.795c-0.22,1.802-0.186,4.649,0.074,6.769
		c0.756,6.125,3.339,10.576,7.704,13.277c2.072,1.281,4.607,2.106,7.014,2.289c1.142,0.086,4.641,0.033,5.595-0.085
		c3.195-0.391,6.416-1.437,9.05-3.066L410,77.57v-2.803c0-2.258-0.214-2.795-0.283-2.75c-0.046,0.028-0.409,0.22-0.682,0.428
		c-2.331,1.744-5.266,2.937-8.301,3.4c-1.061,0.162-3.465,0.257-4.398,0.17c-2.516-0.235-4.828-1.207-6.707-2.83
		c-0.919-0.793-1.913-2.434-2.563-3.93c-0.752-1.741-1.065-3.783-1.065-5.577v-0.59l12.965-0.016L412,63.056v-1.589
		C412,60.592,412.088,59.249,412.063,58.48z M406,58h-10.09h-10.111l0.042-0.32c0.092-0.664,0.382-1.855,0.632-2.576
		c0.693-2.013,1.798-3.78,3.269-5.236c1.397-1.379,3.001-2.235,4.939-2.625c0.916-0.187,2.75-0.238,3.619-0.104
		c1.837,0.285,3.372,1.035,4.653,2.263c1.791,1.717,3.047,5.057,3.047,8.063V58z M375.682,42.549L376,42.63v3.13v3.133l-0.781-0.362
		c-1.258-0.631-2.567-0.884-4.06-0.806c-0.973,0.048-1.612,0.168-2.389,0.457c-1.599,0.602-2.894,1.643-3.799,3.09
		c-1.312,2.091-2.248,4.748-2.521,7.223c-0.052,0.442-0.081,3.991-0.093,11.112L362.339,80h-2.968c-1.635,0-3.148,0.107-3.173,0.082
		C356.174,80.059,356,71.778,356,61.52V43h3.325H362v3.716c0,2.116,0.197,3.846,0.227,3.846c0.031,0,0.351-0.347,0.499-0.77
		c0.678-1.938,1.854-3.75,3.369-5.189c1.364-1.296,2.924-2.072,4.766-2.368c0.517-0.083,0.953-0.1,1.986-0.073
		C374.146,42.196,374.893,42.291,375.682,42.549z M341.233,43H344v18.634V80h-2.734H338v-2.699c0-2.009,0.088-2.946,0.041-2.93
		c-0.039,0.012-0.088,0.254-0.241,0.534c-1.051,1.916-2.803,3.673-4.72,4.726c-2.301,1.266-4.605,1.726-7.755,1.522
		c-6.818-0.436-10.783-4.304-11.836-11.567c-0.277-1.934-0.28-1.955-0.309-14.503L313.154,43h3.016h3.02l0.021,11.685
		c0.022,10.587,0.036,11.769,0.139,12.514c0.411,3.021,1.229,5.056,2.619,6.512c1.115,1.172,2.42,1.854,4.227,2.217
		c0.851,0.171,3.273,0.171,4.052,0c1.83-0.403,3.298-1.2,4.592-2.494c1.476-1.477,2.566-3.568,3.095-5.935l0.18-0.798l0.021-11.851
		L338.154,43H341.233z"
	/>
</svg>
