<?xml version="1.0" encoding="utf-8"?>
<!-- Generator: Adobe Illustrator 16.0.0, SVG Export Plug-In . SVG Version: 6.00 Build 0)  -->
<!DOCTYPE svg PUBLIC "-//W3C//DTD SVG 1.1//EN" "http://www.w3.org/Graphics/SVG/1.1/DTD/svg11.dtd">
<svg version="1.1" id="Capa_1" xmlns="http://www.w3.org/2000/svg" xmlns:xlink="http://www.w3.org/1999/xlink" x="0px" y="0px"
	 width="256px" height="132px" viewBox="0 0 256 132" enable-background="new 0 0 256 132" xml:space="preserve">
<g>
	<linearGradient id="SVGID_1_" gradientUnits="userSpaceOnUse" x1="36.7202" y1="59.4116" x2="50.3263" y2="136.5757">
		<stop  offset="0" style="stop-color:#41D5D5"/>
		<stop  offset="0.7" style="stop-color:#315888"/>
	</linearGradient>
	<path fill="url(#SVGID_1_)" d="M44.951,58.936c-47.248,0-44.933,47.344-44.933,47.344c0,23.56,10.882,25.239,10.882,25.239h34.051
		h34.051c0,0,10.881-1.68,10.881-25.239C89.884,106.28,92.201,58.936,44.951,58.936z"/>
	<linearGradient id="SVGID_2_" gradientUnits="userSpaceOnUse" x1="67.1094" y1="21.668" x2="183.5148" y2="138.0733">
		<stop  offset="0" style="stop-color:#41D5D5"/>
		<stop  offset="0.7" style="stop-color:#315888"/>
	</linearGradient>
	<path fill="url(#SVGID_2_)" d="M125.312,0.48c-85.574,0-81.379,85.408-81.379,85.408c0,42.667,19.708,45.371,19.708,45.371h61.671
		h61.671c0,0,19.708-2.704,19.708-45.371C206.69,85.889,210.886,0.48,125.312,0.48z"/>
	<linearGradient id="SVGID_3_" gradientUnits="userSpaceOnUse" x1="173.1572" y1="141.8301" x2="228.5132" y2="45.9507">
		<stop  offset="0" style="stop-color:#41D5D5"/>
		<stop  offset="0.9" style="stop-color:#315888"/>
	</linearGradient>
	<path fill="url(#SVGID_3_)" d="M198.932,39.432c-59.984,0-57.045,59.946-57.045,59.946c0,29.909,13.815,31.882,13.815,31.882
		h43.229h43.229c0,0,13.815-1.973,13.815-31.882C255.977,99.378,258.917,39.432,198.932,39.432z"/>
</g>
</svg>
