<?xml version="1.0" encoding="utf-8"?>
<!-- Generator: Adobe Illustrator 16.0.0, SVG Export Plug-In . SVG Version: 6.00 Build 0)  -->
<!DOCTYPE svg PUBLIC "-//W3C//DTD SVG 1.1//EN" "http://www.w3.org/Graphics/SVG/1.1/DTD/svg11.dtd">
<svg
	version="1.1"
	xmlns="http://www.w3.org/2000/svg"
	xmlns:xlink="http://www.w3.org/1999/xlink"
	x="0px"
	y="0px"
	width="512px"
	height="90px"
	viewBox="0 0 512 90"
	enable-background="new 0 0 512 90"
	xml:space="preserve"
>
	<path
		fill="#ffffff"
		d="M43.004,88.178V71.377c17.813,0,31.553-17.563,24.685-36.147c-2.53-6.983-8.029-12.482-15.012-15.012
		c-13.72-5.159-29.024,1.781-34.183,15.5c-1.104,2.938-1.679,6.047-1.698,9.185H0C0,16.901,27.23-5.244,57,3.923
		c12.985,4.079,23.154,14.25,27.23,27.235C93.392,60.942,71.251,88.178,43.004,88.178z M43.259,63.167H26.463V46.621h16.796
		 M26.463,76.15H13.74V63.167h12.723V76.15 M13.74,63.167H3.066v-10.69H13.74"
	/>
	<path
		fill="#ffffff"
		d="M159.813,26.744c-1.533-3.797-3.567-6.096-6.367-7.88C148.613,15.553,142.251,14,135.123,14H120v49h15.128
		c7.126,0,13.234-1.709,18.323-5.272c2.78-2.021,4.975-4.708,6.362-7.853c1.533-3.311,2.289-7.365,2.289-11.693
		S161.341,29.8,159.813,26.744z M147.085,51.703C143.779,53.746,139.451,55,133.851,55H129V22h4.601
		c5.345,0,9.923,0.987,13.484,3.276c3.817,2.29,5.621,6.62,5.621,12.96C152.706,44.578,150.662,49.158,147.085,51.703z
		 M173.043,12.769c-1.43-0.038-2.812,0.517-3.817,1.533c-1.176,0.909-1.841,2.331-1.783,3.817c0,2.952,2.393,5.345,5.345,5.345
		c2.952,0,5.345-2.394,5.345-5.345c0.038-1.429-0.517-2.811-1.533-3.817c-0.761-1.022-2.044-1.533-3.577-1.533 M168,28h9v35h-9V28
		 M209,30.637c-3-2.047-5.492-3.37-8.566-3.37c-4.538-0.101-8.98,1.773-12.045,5.121c-3.179,3.367-4.955,7.85-4.875,12.479
		c0,4.839,1.512,9.165,4.579,12.477c3.065,3.311,7.27,4.84,12.109,4.84c3.114,0.049,5.799-0.935,8.799-2.799v0.762
		c0,2.801-0.92,5.11-2.448,6.643c-1.528,1.533-3.656,2.289-6.44,2.289c-4.088,0-6.657-1.532-9.708-5.855l-6.151,5.855l0.246,0.256
		c1.272,1.783,3.301,3.577,5.846,5.345c2.544,1.769,5.848,2.555,9.665,2.555c5.345,0,9.262-1.532,12.313-4.839
		c3.051-3.306,4.678-7.384,4.678-12.729V28h-8V30.637z M206.946,51.71l-0.056,0.016c-1.533,1.783-3.577,2.555-6.131,2.555
		c-2.555,0-4.599-0.761-6.132-2.555c-1.533-1.793-2.289-4.088-2.289-6.873c0-2.784,0.812-5.104,2.345-6.888s3.577-2.555,6.132-2.555
		c2.555,0,4.599,0.762,6.131,2.555c1.533,1.794,2.29,4.088,2.29,6.873S208.474,49.947,206.946,51.71z M226,28h8v35h-9V28
		 M229.792,12.769c-2.88-0.071-5.273,2.206-5.345,5.086c-0.002,0.086-0.002,0.172,0,0.259c0,2.952,2.393,5.344,5.345,5.344
		c2.952,0,5.345-2.393,5.345-5.344c0.071-2.881-2.206-5.274-5.086-5.345c-0.088-0.002-0.176-0.002-0.264,0 M253,19h-8v9h-5v8h5
		v14.443c0,4.599,0.924,7.89,2.702,9.673s5.061,2.97,9.369,2.97c1.446,0.042,2.847-0.086,4.278-0.086H262v-8.234l-3.135,0.256
		c-2.044,0-3.455-0.256-3.966-1.022C254.138,53.238,254,51.71,254,49.4V36h8v-8h-8.289l-0.266-9 M291.898,30.842l-0.011-0.005
		c-2.555-2.289-6.365-3.312-10.944-3.312c-2.803,0.077-5.567,0.682-8.146,1.783c-2.289,1.272-4.6,3.066-5.852,5.621l5.62,5.345
		c2.289-3.816,4.833-5.109,8.395-5.109c1.666-0.045,3.121,0.498,4.427,1.533c1.177,0.909,1.612,2.331,1.612,3.816v1.783
		c-2-0.691-4.027-1.036-6.19-1.021c-4.326,0-7.804,1.021-10.604,3.065s-4.045,5.11-4.045,8.656c0,3.312,1.044,5.855,3.327,7.89
		c2.284,2.033,4.959,2.8,8.244,2.8c3.287,0,6.268-1.272,9.268-3.577V63h9V40.515C296,36.427,294.453,33.131,291.898,30.842z
		 M287,53.238c-2,1.854-4.924,2.852-7.729,2.8c-1.533,0-2.847-0.255-3.623-1.021c-0.777-0.767-1.296-1.533-1.296-2.556
		c0.38-1.053,0.978-2.01,1.771-2.8l-0.011,0.016c1.021-0.762,2.38-1.022,4.178-1.022C282.55,48.731,285,49.16,287,49.927V53.238z
		 M303,14h9v49h-9V14 M343.537,13.004c-14.06,0.005-25.451,11.407-25.445,25.467s11.405,25.453,25.465,25.447
		C357.591,63.861,369,52.495,369,38.461c0-0.004,0-0.007,0-0.011C369,24.391,357.597,12.998,343.537,13.004z M360,38.235
		c0,9.139-7.393,16.534-16.531,16.521c-9.137-0.015-16.514-7.434-16.499-16.571c0.014-9.138,7.444-16.372,16.582-16.357L343.541,22
		c0.021,0,0.044,0,0.066,0C352.726,22,360,29.103,360,38.221C360,38.226,360,38.23,360,38.235z M400.54,50.704
		c-1.301,1.505-2.751,2.874-4.327,4.088c-1.387,0.84-2.979,1.28-4.6,1.271c-2.412-0.021-4.708-1.044-6.336-2.825
		c-1.783-2.044-2.555-4.328-2.555-7.384s0.762-5.345,2.555-7.384c1.566-1.876,3.92-2.912,6.362-2.8c2.8,0,5.851,1.783,8.395,4.839
		l5.851-5.621c-3.816-4.839-8.65-7.128-14.507-7.128c-4.833,0-8.905,1.783-12.468,5.345c-3.333,3.495-5.166,8.155-5.109,12.984
		c0,5.109,1.783,9.673,5.109,12.983c3.202,3.481,7.739,5.427,12.468,5.345c6.362,0,11.452-2.8,15.013-7.889l-5.851-5.856
		 M434.111,50.908c-0.511,0.761-1.272,1.272-2.044,2.044c-0.722,0.761-1.591,1.367-2.555,1.783
		c-1.324,0.726-2.819,1.078-4.328,1.022c-2.216,0.031-4.378-0.873-6.132-2.229c-1.532-1.271-2.289-2.529-2.555-5.529H440v-2.942
		c0-2.258-0.334-4.507-1.066-6.643c-0.371-1.974-1.274-3.816-2.577-5.345l0.075,0.04c-1.339-1.764-3.1-3.168-5.114-4.088
		c-2.31-1.069-4.837-1.594-7.382-1.532c-4.834,0-8.908,1.783-11.964,5.345c-2.892,3.702-4.42,8.287-4.328,12.983
		c0,5.346,1.532,9.673,4.833,12.984c3.301,3.311,7.379,5.109,12.724,5.109c5.851,0,10.689-2.289,14.507-7.128l0.256-0.255
		L434.111,50.908z M419.625,37.05c1.216-1.212,2.884-1.791,4.6-1.714c2.044,0,3.816,0.407,4.833,1.68
		c1.022,1.021,1.533,2.984,1.784,3.984h-13.506C417.726,40,418.516,38.187,419.625,37.05z M470.099,30.842l0.077-0.005
		c-2.555-2.289-6.314-3.312-10.895-3.312c-2.799,0.08-5.536,0.687-8.111,1.789c-2.289,1.272-4.587,3.065-5.839,5.62l5.627,5.345
		c2.289-3.816,4.837-5.109,8.398-5.109c1.665-0.044,3.424,0.499,4.729,1.533c1.177,0.909,1.914,2.331,1.914,3.816v1.783
		c-2-0.691-4.328-1.036-6.49-1.021c-4.328,0-7.955,1.021-10.756,3.066c-2.8,2.043-4.12,5.109-4.12,8.655
		c0,3.312,1.007,5.856,3.291,7.89s5.24,2.8,8.526,2.8c3.285,0,6.549-1.272,9.549-3.576V63h8V40.515
		C474,36.427,472.914,33.131,470.099,30.842z M465,53.238c-2,1.854-4.597,2.852-7.401,2.8c-1.532,0-2.684-0.255-3.461-1.021
		c-0.776-0.767-1.214-1.533-1.214-2.556c0.182-1.139,0.856-2.152,1.813-2.8l0.009,0.016c1.022-0.762,2.065-1.022,3.863-1.022
		c2.259,0.077,4.392,0.506,6.392,1.272V53.238z M508.183,31.348c-2.555-2.8-5.655-4.088-9.983-4.088
		c-3.563,0-6.199,1.022-8.199,3.066V28h-9v35h9V43.82c0-2.555,0.44-4.839,1.713-6.361c1.262-1.506,3.11-2.35,5.074-2.289
		c1.771-0.086,3.392,0.672,4.515,2.044c1.195,1.627,1.698,3.603,1.698,5.621V63h9V42.804
		C511.744,37.967,510.473,34.148,508.183,31.348"
	/>
</svg>
