<?xml version="1.0" encoding="utf-8"?>
<!-- Generator: Adobe Illustrator 16.0.0, SVG Export Plug-In . SVG Version: 6.00 Build 0)  -->
<!DOCTYPE svg PUBLIC "-//W3C//DTD SVG 1.1//EN" "http://www.w3.org/Graphics/SVG/1.1/DTD/svg11.dtd">
<svg
	version="1.1"
	xmlns="http://www.w3.org/2000/svg"
	xmlns:xlink="http://www.w3.org/1999/xlink"
	x="0px"
	y="0px"
	width="512px"
	height="90px"
	viewBox="0 0 512 90"
	enable-background="new 0 0 512 90"
	xml:space="preserve"
>
	<path
		fill="#ffffff"
		d="M83.123,32.27c-1.896-6.984-5.788-13.263-11.2-18.06l-0.172,0.172l0.023-0.207
		C56.42,0.622,32.987,2.086,19.434,17.44c-3.766,4.261-6.494,9.338-7.987,14.83c0.185-0.076,0.376-0.129,0.568-0.18
		C4.73,36.92-0.054,45.208,0.001,54.603c0.051,8.267,3.908,16.05,10.466,21.086l0.028-0.028l-0.028,0.034
		C15.121,79.216,20.807,81,26.646,81h20.511h0.131H67.9c14.802,0,26.896-11.649,27.011-26.45
		C94.979,45.56,90.553,37.295,83.123,32.27z M67.9,65H47.288L47,64.813V65H26.646c-1.461,0-2.899-0.487-4.232-1.089l0.005-0.091
		c-5.185-2.34-7.491-8.49-5.15-13.675c2.342-5.185,8.449-7.514,13.634-5.172c2.285,1.031,4.113,2.854,5.15,5.14l11.953-11.958
		C44,32.909,38.234,29.388,31.874,28.146c0.087-0.052,0.171-0.051,0.242-0.038C39.454,20.046,51.806,19,60.283,26h0.227
		C65.294,30,68,35.875,68,42.114v2.057c6,0,10.257,4.724,10.257,10.415S73.592,65,67.9,65z"
	/>
	<path
		fill="#ffffff"
		d="M149.787,69.638c-7.173,0.092-14.066-2.74-19.104-7.845c-5.201-4.889-8.106-11.736-8.016-18.875
		c-0.086-7.139,2.82-13.981,8.016-18.875c5.014-5.156,11.913-8.044,19.104-7.987c6.848-0.091,13.451,2.569,18.322,7.383l-5.15,5.242
		c-3.526-3.413-8.267-5.281-13.172-5.213c-5.145-0.063-10.085,2.04-13.605,5.788c-3.657,3.629-5.675,8.598-5.589,13.748
		c-0.046,5.093,1.972,9.986,5.589,13.576c7.452,7.429,19.468,7.571,27.097,0.319c2.272-2.484,3.663-5.652,3.965-9.002h-17.371
		v-7.406h24.578c0.239,1.492,0.336,3.002,0.29,4.518c0.308,6.318-1.982,12.488-6.341,17.08
		C163.552,67.131,156.783,69.877,149.787,69.638L149.787,69.638z M206.93,64.716c-6.854,6.568-17.667,6.568-24.521,0
		c-3.321-3.22-5.133-7.68-5.008-12.301c-0.125-4.62,1.692-9.081,5.008-12.3c6.859-6.552,17.661-6.552,24.521,0
		c3.316,3.219,5.134,7.68,5.008,12.3c0.12,4.626-1.709,9.087-5.036,12.301H206.93z M187.821,59.884
		c3.538,3.783,9.475,3.978,13.258,0.434c0.148-0.143,0.296-0.285,0.433-0.434c1.932-1.999,2.975-4.688,2.895-7.469
		c0.086-2.786-0.957-5.492-2.895-7.497c-3.641-3.795-9.668-3.926-13.468-0.285c-0.098,0.091-0.194,0.188-0.285,0.285
		c-1.937,2.005-2.979,4.711-2.895,7.497c-0.073,2.78,0.98,5.476,2.923,7.469H187.821z M244.617,64.716
		c-6.854,6.568-17.667,6.568-24.521,0c-3.321-3.22-5.134-7.68-5.008-12.301c-0.126-4.62,1.691-9.081,5.008-12.3
		c6.854-6.569,17.667-6.569,24.521,0c3.316,3.219,5.134,7.68,5.008,12.3C249.756,57.036,247.938,61.496,244.617,64.716z
		 M225.515,59.884c3.538,3.783,9.475,3.978,13.258,0.434c0.147-0.143,0.296-0.285,0.433-0.434c1.932-1.999,2.974-4.688,2.895-7.469
		c0.085-2.786-0.958-5.492-2.895-7.497c-3.641-3.795-9.668-3.926-13.463-0.285c-0.097,0.091-0.193,0.188-0.285,0.285
		c-1.937,2.005-2.979,4.711-2.894,7.497c-0.074,2.78,0.979,5.476,2.923,7.469H225.515z M269.395,85.095
		c-3.47,0.108-6.87-0.975-9.64-3.071c-2.457-1.848-4.393-4.301-5.617-7.121l6.598-2.752c0.718,1.687,1.84,3.168,3.27,4.313
		c1.527,1.229,3.447,1.88,5.413,1.822c2.518,0.154,4.979-0.798,6.745-2.604c1.743-2.103,2.604-4.803,2.404-7.525v-2.49h-0.263
		c-2.238,2.655-5.594,4.103-9.058,3.908c-4.393,0.012-8.592-1.812-11.577-5.036c-3.236-3.196-5.025-7.577-4.951-12.13
		c-0.08-4.574,1.709-8.984,4.951-12.215c2.979-3.235,7.179-5.076,11.577-5.064c1.84-0.006,3.663,0.404,5.326,1.185
		c1.441,0.627,2.724,1.567,3.767,2.752h0.262v-2.752h7.179v30.828c0.382,4.928-1.282,9.799-4.604,13.463
		C278.015,83.631,273.771,85.248,269.395,85.095z M269.919,62.864c2.501,0.057,4.899-1.009,6.54-2.895
		c1.783-2.045,2.729-4.694,2.633-7.412c0.108-2.763-0.832-5.458-2.633-7.555c-1.641-1.892-4.039-2.951-6.54-2.894
		c-2.569-0.052-5.036,1.002-6.773,2.894c-1.915,2.022-2.957,4.718-2.895,7.498c-0.058,2.757,0.979,5.424,2.895,7.412
		C264.871,61.821,267.338,62.898,269.919,62.864z M298.548,17.998v50.598h-7.555V17.998H298.548z M319.274,69.638
		c-4.575,0.12-8.99-1.675-12.187-4.95c-3.242-3.248-5.014-7.687-4.895-12.272c-0.171-4.598,1.533-9.07,4.718-12.392
		c3.008-3.167,7.213-4.922,11.577-4.837c1.988-0.022,3.953,0.365,5.788,1.128c1.652,0.667,3.156,1.652,4.427,2.895
		c1.094,1.054,2.063,2.228,2.895,3.504c0.672,1.077,1.241,2.211,1.709,3.384l0.78,1.972l-23.153,9.525
		c1.436,3.293,4.746,5.367,8.335,5.214c3.47,0.011,6.688-1.807,8.483-4.774l5.788,3.908c-1.477,2.115-3.368,3.908-5.561,5.27
		C325.382,68.852,322.351,69.695,319.274,69.638L319.274,69.638z M309.606,51.892l15.399-6.398
		c-0.474-1.128-1.322-2.057-2.404-2.632c-1.208-0.684-2.575-1.031-3.966-1.015c-2.353,0.063-4.592,1.049-6.221,2.752
		C310.438,46.49,309.406,49.162,309.606,51.892L309.606,51.892z M373.666,69.638c-13.173,0.229-24.031-10.267-24.259-23.438
		c-0.006-0.318-0.006-0.644,0.005-0.963c-0.308-13.171,10.124-24.093,23.291-24.401c0.318-0.006,0.644-0.006,0.963-0.006
		c6.586-0.205,12.909,2.609,17.165,7.64l-4.17,4.051c-3.128-3.937-7.947-6.142-12.967-5.937c-4.814-0.108-9.469,1.755-12.882,5.15
		c-3.549,3.572-5.446,8.46-5.241,13.491c-0.211,5.03,1.692,9.919,5.241,13.491c3.413,3.4,8.067,5.258,12.882,5.15
		c5.605,0.063,10.933-2.433,14.471-6.774l4.171,4.17c-2.183,2.609-4.923,4.695-8.017,6.107
		C380.98,68.92,377.341,69.695,373.666,69.638L373.666,69.638z M403.536,68.596h-5.993V21.844h5.993V68.596z M413.324,40.457
		c6.535-6.489,17.086-6.489,23.621,0c3.099,3.275,4.769,7.651,4.631,12.157c0.138,4.507-1.532,8.882-4.631,12.158
		c-6.535,6.489-17.086,6.489-23.621,0c-3.1-3.276-4.769-7.651-4.632-12.158C408.556,48.108,410.219,43.732,413.324,40.457z
		 M417.779,61.013c3.834,4.051,10.227,4.227,14.283,0.393c0.137-0.125,0.268-0.262,0.393-0.393c2.114-2.268,3.23-5.293,3.1-8.393
		c0.137-3.1-0.98-6.124-3.1-8.392c-3.834-4.051-10.227-4.228-14.282-0.394c-0.137,0.125-0.269,0.263-0.394,0.394
		c-2.113,2.268-3.23,5.292-3.1,8.392c-0.119,3.094,1.009,6.107,3.128,8.363L417.779,61.013z M474.774,68.596h-5.788v-4.427h-0.171
		c-1.031,1.681-2.49,3.06-4.228,3.993c-1.801,1.043-3.852,1.596-5.937,1.59c-3.43,0.233-6.774-1.111-9.087-3.646
		c-2.193-2.774-3.293-6.255-3.1-9.782V36.64h5.994v18.584c0,5.965,2.632,8.945,7.901,8.945c2.376,0.073,4.638-1.003,6.079-2.895
		c1.556-1.966,2.382-4.409,2.348-6.916V36.64h5.993v31.956H474.774z M495.125,69.638c-4.113,0.012-8.027-1.771-10.711-4.894
		c-3.002-3.315-4.608-7.657-4.489-12.13c-0.119-4.472,1.487-8.813,4.489-12.129c2.684-3.116,6.598-4.905,10.711-4.894
		c2.279-0.034,4.529,0.501,6.54,1.561c1.772,0.889,3.271,2.239,4.342,3.908h0.262l-0.262-4.427v-14.79H512v46.752h-5.788v-4.427
		h-0.262c-1.071,1.669-2.569,3.02-4.342,3.908C499.614,69.125,497.387,69.666,495.125,69.638L495.125,69.638z M496.11,64.169
		c2.74,0.04,5.367-1.1,7.207-3.128c2.034-2.319,3.077-5.345,2.895-8.427c0.183-3.076-0.86-6.107-2.895-8.426
		c-3.635-3.999-9.821-4.29-13.821-0.649c-0.228,0.205-0.444,0.427-0.649,0.649c-2.039,2.302-3.082,5.321-2.895,8.392
		c-0.188,3.071,0.855,6.091,2.895,8.393C490.692,63.046,493.342,64.209,496.11,64.169L496.11,64.169z"
	/>
</svg>
