<?xml version="1.0" encoding="utf-8"?>
<!-- Generator: Adobe Illustrator 16.0.0, SVG Export Plug-In . SVG Version: 6.00 Build 0)  -->
<!DOCTYPE svg PUBLIC "-//W3C//DTD SVG 1.1//EN" "http://www.w3.org/Graphics/SVG/1.1/DTD/svg11.dtd">
<svg
	version="1.1"
	xmlns="http://www.w3.org/2000/svg"
	xmlns:xlink="http://www.w3.org/1999/xlink"
	x="0px"
	y="0px"
	width="512px"
	height="90px"
	viewBox="0 0 512 90"
	enable-background="new 0 0 512 90"
	xml:space="preserve"
>
	<path
		fill="#ffffff"
		d="M47.057,87.408c-8.783-2.195-13.678-9.176-13.693-19.537c-0.004-3.311,0.235-4.898,1.063-7.028
		c2.026-5.222,7.392-9.162,14.452-10.612c3.513-0.721,4.595-1.496,4.595-3.289c0-0.563,0.419-2.238,0.93-3.723
		c2.322-6.748,6.621-12.373,11.213-14.674c4.808-2.409,7.234-2.952,13.05-2.92c8.259,0.044,12.38,1.836,18.142,7.888l3.17,3.329
		l2.84-0.982c13.741-4.756,27.44,3.34,28.545,16.868l0.302,3.701l2.706,0.969c7.729,2.77,11.361,8.584,10.703,17.131
		c-0.432,5.589-3.045,10.052-7.185,12.268l-1.946,1.041l-43.254,0.084C59.449,87.982,48.883,87.864,47.057,87.408L47.057,87.408z
		 M14.631,81.433C9.503,80.214,4.07,75.686,1.521,70.506C0.076,67.568,0,67.136,0,61.938c0-4.944,0.123-5.737,1.273-8.191
		c2.426-5.175,7.072-8.914,12.904-10.382c1.23-0.31,2.387-0.805,2.569-1.099c0.183-0.295,0.386-1.899,0.45-3.567
		c0.406-10.353,7.199-19.476,16.686-22.405c5.124-1.583,11.563-1.194,17.136,1.036c1.768,0.708,1.569,0.859,5.307-4.042
		c2.21-2.898,6.677-6.503,10.333-8.339c3.946-1.982,8.051-2.895,12.957-2.883c13.717,0.034,25.539,8.613,29.91,21.707
		c1.396,4.184,1.326,5.355-0.32,5.39c-0.72,0.015-2.779,0.411-4.578,0.879l-3.271,0.853l-2.983-2.984
		c-8.415-8.414-22.146-10.232-33.82-4.479c-4.663,2.298-8.41,5.598-11.241,9.899c-2.019,3.066-4.591,8.786-4.591,10.206
		c0,1.007-0.816,1.511-4.3,2.652C33.635,49.725,27.34,57.895,27.344,68.347c0.002,3.806,0.98,8.46,2.342,11.127
		c0.512,1.005,0.799,1.96,0.635,2.124C29.904,82.014,16.486,81.874,14.631,81.433L14.631,81.433z"
	/>
	<path
		fill="#ffffff"
		d="M194.544,17.024c-8.968,0-16.057,2.869-21.265,8.606s-7.813,13.424-7.813,23.06
		c0,8.969,2.556,16.251,7.666,21.85c5.111,5.598,11.914,8.396,20.408,8.396c8.689,0,15.625-2.841,20.805-8.522
		s7.77-13.41,7.77-23.186c0-8.996-2.527-16.279-7.582-21.849C209.479,19.81,202.815,17.024,194.544,17.024z M209.082,66.195
		c-3.788,4.289-8.969,6.434-15.541,6.434c-6.155,0-11.147-2.25-14.977-6.748c-3.83-4.498-5.744-10.437-5.744-17.816
		c0-7.381,1.963-13.341,5.891-17.88c3.926-4.54,9.037-6.81,15.332-6.81c6.461,0,11.529,2.158,15.206,6.475s5.515,10.43,5.515,18.34
		C214.764,55.904,212.869,61.906,209.082,66.195z M264.525,38.621c2.479,3.021,3.475,7.452,3.475,13.161V78h-6V53.537
		c0-9.08-3.453-13.619-10.082-13.619c-3.426,0-6.398,1.288-8.641,3.864c-2.242,2.575-3.277,5.827-3.277,9.755V78h-7V35h7v7h-0.004
		c3.23-5,7.91-7.976,14.037-7.976C258.712,34.024,262.047,35.599,264.525,38.621z M298.231,34.153
		c-5.598,0-10.283,2.096-14.058,6.287c-3.773,4.191-5.66,9.616-5.66,16.272c0,7.046,1.727,12.512,5.18,16.396
		c3.454,3.885,8.275,5.828,14.319,5.828c6.183,0,10.987-1.364,14.987-4.094v-6.434c-4,3.175-8.54,4.763-13.358,4.763
		c-4.289,0-7.694-1.424-10.146-4.015c-2.451-2.59-3.77-6.157-3.881-11.157H316v-3.335c0-6.434-1.621-11.461-4.686-15.082
		S303.83,34.153,298.231,34.153z M285.699,52c0.529-3,1.922-6.528,4.178-8.84c2.256-2.312,4.999-3.354,8.229-3.354
		c3.342,0,5.953,0.931,7.833,3.131c1.88,2.201,2.834,5.063,2.861,9.063H285.699z M343.685,18H327v60h16.016
		c9.831,0,17.679-2.839,23.541-8.451s8.794-13.071,8.794-22.317C375.351,27.764,364.795,18,343.685,18z M361.439,65.483
		C357.066,69.689,350.953,72,343.1,72H334V24h9.518c16.32,0,24.48,7.965,24.48,23.311C367.998,55.025,365.812,61.278,361.439,65.483
		z M404.666,34.411c1.783,0,3.334,0.188,4.334,0.578v7.102c-2-0.919-3.18-1.379-5.436-1.379c-2.925,0-5.623,1.379-7.588,4.135
		c-1.963,2.758-2.977,6.518-2.977,11.28V78h-7V35h7v9h0.23c0.975-3,2.465-5.369,4.471-7.055
		C399.706,35.261,402.188,34.411,404.666,34.411z M416,35h7v43h-7V35z M422.662,16.669c0.877,0.85,1.315,1.915,1.315,3.196
		c0,1.226-0.438,2.27-1.315,3.133c-0.878,0.863-1.942,1.295-3.196,1.295c-1.226,0-2.27-0.417-3.133-1.253
		c-0.863-0.836-1.295-1.894-1.295-3.175s0.432-2.346,1.295-3.196s1.907-1.274,3.133-1.274
		C420.72,15.396,421.784,15.82,422.662,16.669z M463.08,35h7.228l-17.045,43h-6.726l-16.209-43h7.52l10.861,31.053
		c0.808,2.285,1.31,4.947,1.504,5.947h0.167c0.279-2,0.725-4.053,1.337-5.779L463.08,35z M512,54.665
		c0-6.434-1.532-11.461-4.596-15.082s-7.395-5.431-12.992-5.431s-10.284,2.096-14.058,6.287s-5.66,9.616-5.66,16.272
		c0,7.046,1.727,12.512,5.18,16.396c3.454,3.885,8.185,5.828,14.229,5.828c6.182,0,10.896-1.364,14.896-4.094v-6.434
		c-4,3.175-8.449,4.763-13.268,4.763c-4.289,0-7.651-1.424-10.102-4.015C483.18,66.567,481.907,63,481.796,58H512V54.665z
		 M481.88,52c0.528-3,1.921-6.528,4.177-8.84c2.256-2.312,5-3.354,8.23-3.354c3.342,0,5.953,0.931,7.833,3.131
		C504,45.138,504.954,48,504.981,52H481.88z"
	/>
</svg>
